<?xml version="1.0" encoding="utf-8"?>
<!-- Generator: Adobe Illustrator 24.0.1, SVG Export Plug-In . SVG Version: 6.00 Build 0)  -->
<svg version="1.1" id="Layer_1" xmlns="http://www.w3.org/2000/svg" xmlns:xlink="http://www.w3.org/1999/xlink" x="0px" y="0px"
	 viewBox="0 0 142.3 89.8" style="enable-background:new 0 0 142.3 89.8;" xml:space="preserve">
<style type="text/css">
	.st0{fill:#FF6100;}
</style>
<path class="st0" d="M1.7,64.5v25.2h18.7V67.6c0-9.8,5.5-16.2,18.9-16.6V32.5C14.7,32.9,1.7,45.6,1.7,64.5z"/>
<path class="st0" d="M110,31.7c-17.4,0.1-29.9,12.5-29.9,29.5c0,16.8,10.4,27.8,28,29.5l12.3-9.2l0.4,0.2v8.1h18.8V61.1
	C139.7,43.3,127.8,31.6,110,31.7z M110,72.5c-6.5,0-11.1-4.7-11.1-11.3c0-6.6,4.7-11.3,11.1-11.3c6.5,0,10.9,4.7,10.9,11.3
	C120.9,67.7,116.4,72.5,110,72.5z"/>
<path class="st0" d="M70.5,32.5H51.8v57.3h18.7V32.5z"/>
<path class="st0" d="M61.2,0c-2.5,0-4.9,0.7-6.9,2.1c-2.1,1.4-3.7,3.3-4.6,5.5c-0.9,2.3-1.2,4.7-0.7,7.1c0.5,2.4,1.7,4.6,3.4,6.3
	c1.7,1.7,4,2.9,6.4,3.4c2.4,0.5,4.9,0.2,7.2-0.7c2.3-0.9,4.2-2.5,5.6-4.5c1.4-2,2.1-4.4,2.1-6.9c0-1.6-0.3-3.2-0.9-4.7
	c-0.6-1.5-1.5-2.9-2.7-4c-1.2-1.1-2.5-2.1-4.1-2.7C64.4,0.3,62.8,0,61.2,0L61.2,0z"/>
</svg>
